<svg width="218" height="74" viewBox="0 0 218 74" fill="none" xmlns="http://www.w3.org/2000/svg">
<path d="M17.1364 0L29 33.6446L40.8636 0H58L35.4318 54.5844H23.2386L0 0H17.1364Z" fill="#3D4654"/>
<path d="M29 74C39.6754 74 48.3296 65.3379 48.3296 54.6526C48.3296 43.9674 39.6754 35.3052 29 35.3052C18.3246 35.3052 9.67047 43.9674 9.67047 54.6526C9.67047 65.3379 18.3246 74 29 74Z" fill="#F4C53B"/>
<path d="M29 67.7671C36.2362 67.7671 42.1022 61.8956 42.1022 54.6527C42.1022 47.4098 36.2362 41.5383 29 41.5383C21.7638 41.5383 15.8977 47.4098 15.8977 54.6527C15.8977 61.8956 21.7638 67.7671 29 67.7671Z" fill="#010101"/>
<path d="M28.5114 56.1426H23.75L30.1705 45.6898C29.7841 45.6443 29.3978 45.6102 29 45.6102C24.0114 45.6102 19.9659 49.6594 19.9659 54.6526C19.9659 58.8042 22.7728 62.296 26.5796 63.3538L28.5228 56.1426H28.5114Z" fill="#F4C53B"/>
<path d="M31.2955 45.9173L29.3751 52.8555H34.2387L27.6819 63.5927C28.1137 63.6609 28.5455 63.6951 29.0001 63.6951C33.9887 63.6951 38.0342 59.6459 38.0342 54.6526C38.0342 50.4556 35.1705 46.941 31.2955 45.9173Z" fill="#F4C53B"/>
<g clip-path="url(#clip0_2031_2)">
<path d="M66.7 26.5029C69.1583 26.5029 71.0957 27.1075 72.5092 28.3169C73.9226 29.5263 74.6294 31.0596 74.6294 32.9168C74.6294 34.2557 74.2516 35.4188 73.4992 36.403C72.7468 37.3871 71.7263 38.0288 70.4438 38.3281C71.839 38.4762 73.0971 39.0901 74.2151 40.1668C75.333 41.2466 75.8935 42.6195 75.8935 44.2947C75.8935 46.3401 75.1137 48.0493 73.554 49.4252C71.9944 50.8012 69.8194 51.4891 67.029 51.4891H62.1307C60.9914 51.4891 60.0196 51.1158 59.2124 50.3723C58.4051 49.6288 58 48.6262 58 47.3613V26.5029H66.7ZM63.7269 36.4863H66.3162C67.1417 36.4863 67.7784 36.1808 68.2292 35.5669C68.6801 34.953 68.9055 34.2372 68.9055 33.4197C68.9055 32.7132 68.6892 32.053 68.2597 31.439C67.8271 30.8251 67.2362 30.5197 66.4868 30.5197H63.73V36.4863H63.7269ZM63.7269 47.4723H66.4716C67.6657 47.4723 68.5826 47.1299 69.2162 46.4419C69.8498 45.7539 70.1697 44.9827 70.1697 44.1281C70.1697 43.2735 69.8803 42.4097 69.3015 41.6477C68.7227 40.8856 67.8363 40.5031 66.6421 40.5031H63.73V47.4754L63.7269 47.4723Z" fill="#010101"/>
<path d="M85.3125 26V31.3527H79.5856V26H85.3125ZM85.3125 33.0279V51.4892H79.5856V33.0279H85.3125Z" fill="#010101"/>
<path d="M97.9239 33.4721C98.5849 33.7714 99.0601 34.1786 99.3556 34.7V33.0279H105.083V46.6208C105.083 49.1876 104.303 51.2269 102.743 52.7386C101.183 54.2472 99.2642 55.0031 96.9887 55.0031C95.0787 55.0031 93.3819 54.5434 91.8954 53.6302C90.4088 52.7139 89.5193 51.4984 89.2238 49.9836H94.509C94.6918 50.2428 94.969 50.4772 95.3346 50.6808C95.7001 50.8845 96.1784 50.9863 96.7663 50.9863C97.4273 50.9863 98.0335 50.687 98.5849 50.0947C99.1363 49.4992 99.3921 48.6817 99.3556 47.642C99.0997 48.0894 98.6306 48.4503 97.9513 48.7311C97.272 49.0087 96.6018 49.1506 95.9408 49.1506C94.4725 49.1506 92.922 48.512 91.2861 47.2348C89.6534 45.9575 88.837 43.9461 88.837 41.2034C88.837 38.6829 89.5071 36.693 90.8475 35.2275C92.1878 33.7621 93.7749 33.0309 95.6118 33.0309C96.4921 33.0309 97.2628 33.179 97.9239 33.4783V33.4721ZM95.2523 38.1245C94.7923 38.8433 94.5639 39.8336 94.5639 41.0862C94.5639 42.4899 94.8106 43.5141 95.3072 44.1589C95.8037 44.8037 96.3612 45.1276 96.9856 45.1276C97.6101 45.1276 98.1615 44.813 98.6367 44.1867C99.1119 43.5604 99.3525 42.5608 99.3525 41.1941C99.3525 39.8274 99.1119 38.7476 98.6367 38.0658C98.1584 37.384 97.6071 37.0416 96.9856 37.0416C96.288 37.0416 95.7093 37.4025 95.2523 38.1214V38.1245Z" fill="#010101"/>
<path d="M118.355 27.7277V33.0248H122.924V37.0416H118.355V44.6834C118.355 45.6521 118.693 46.3555 119.372 46.8029C120.052 47.2502 121.237 47.4723 122.924 47.4723V51.4892C118.702 51.5262 115.93 51.1066 114.608 50.2335C113.286 49.3604 112.625 47.7901 112.625 45.5195V37.0416H108.991V33.0248H112.625V27.7277H118.352H118.355Z" fill="#010101"/>
<path d="M140.437 35.425C142.015 37.2082 142.804 39.4233 142.804 42.0611C142.804 44.6988 142.07 47.1083 140.601 48.9501C139.133 50.7888 136.931 51.7113 133.994 51.7113C131.058 51.7113 128.947 50.8289 127.442 49.0612C125.937 47.2965 125.185 44.9426 125.185 42.0055C125.185 39.0685 125.992 36.9768 127.606 35.2862C129.221 33.5955 131.35 32.7471 133.994 32.7471C136.638 32.7471 138.859 33.6387 140.437 35.425ZM131.71 38.1584C131.176 39.087 130.911 40.4075 130.911 42.1166C130.911 43.9769 131.204 45.3714 131.792 46.3C132.38 47.2286 133.114 47.6945 133.994 47.6945C134.875 47.6945 135.609 47.241 136.197 46.3278C136.785 45.4177 137.077 44.0139 137.077 42.1166C137.077 40.3704 136.794 39.0407 136.224 38.1306C135.654 37.2205 134.911 36.7639 133.994 36.7639C133.004 36.7639 132.24 37.2298 131.71 38.1584Z" fill="#010101"/>
<path d="M154.59 33.9195C155.616 33.3611 156.865 33.0649 158.334 33.0279V37.3779C156.646 37.4149 155.196 38.1584 153.984 39.6084C152.771 41.0584 152.165 42.8262 152.165 44.9055V51.4861H146.438V33.0279H152.165V36.2055C152.753 35.2399 153.56 34.4779 154.587 33.9195H154.59Z" fill="#010101"/>
<path d="M161.529 38.6027C161.675 36.7824 162.437 35.351 163.814 34.3082C165.191 33.2685 167.165 32.7471 169.733 32.7471C172.301 32.7471 174.119 33.2222 175.295 34.1694C176.471 35.1165 177.059 36.4647 177.059 38.2139V45.4639C177.059 46.2815 177.178 46.8121 177.415 47.0528C177.653 47.2965 178.104 47.4353 178.765 47.4723V51.4892C176.775 51.5262 175.356 51.4244 174.506 51.1837C173.656 50.94 173.026 50.468 172.62 49.7615C172.212 50.3939 171.539 50.8937 170.595 51.267C169.65 51.6372 168.535 51.8254 167.241 51.8254C165.501 51.8254 164.06 51.3411 162.915 50.3754C161.77 49.4098 161.197 48.1819 161.197 46.6949C161.197 45.0228 161.697 43.6098 162.699 42.456C163.701 41.3052 165.239 40.4846 167.32 40.0033C168.916 39.6331 169.982 39.2876 170.522 38.9729C171.061 38.6582 171.329 38.3127 171.329 37.9424C171.329 37.5321 171.155 37.236 170.805 37.0509C170.455 36.8657 169.97 36.7732 169.346 36.7732C168.721 36.7732 168.225 36.9398 167.859 37.2761C167.491 37.6093 167.289 38.0566 167.253 38.615H161.526L161.529 38.6027ZM167.42 47.389C167.749 47.6667 168.173 47.8086 168.688 47.8086C169.422 47.8086 170.046 47.605 170.561 47.1947C171.076 46.7874 171.332 46.2476 171.332 45.5781V42.7892L168.91 43.5697C168.286 43.7548 167.798 44.0911 167.451 44.5723C167.101 45.0567 166.927 45.6151 166.927 46.2445C166.927 46.7288 167.091 47.1083 167.424 47.389H167.42Z" fill="#010101"/>
<path d="M189.667 33.4721C190.328 33.7714 190.803 34.1786 191.099 34.7V33.0279H196.826V46.6208C196.826 49.1876 196.046 51.2269 194.486 52.7386C192.927 54.2472 191.007 55.0031 188.732 55.0031C186.822 55.0031 185.125 54.5434 183.639 53.6302C182.152 52.7139 181.263 51.4984 180.967 49.9836H186.252C186.435 50.2428 186.712 50.4772 187.078 50.6808C187.443 50.8845 187.922 50.9863 188.509 50.9863C189.171 50.9863 189.777 50.687 190.328 50.0947C190.879 49.4992 191.135 48.6817 191.099 47.642C190.843 48.0894 190.374 48.4503 189.694 48.7311C189.015 49.0087 188.345 49.1506 187.684 49.1506C186.216 49.1506 184.665 48.512 183.029 47.2348C181.397 45.9575 180.58 43.9461 180.58 41.2034C180.58 38.6829 181.25 36.693 182.591 35.2275C183.931 33.7621 185.518 33.0309 187.355 33.0309C188.235 33.0309 189.006 33.179 189.667 33.4783V33.4721ZM186.996 38.1245C186.536 38.8433 186.307 39.8336 186.307 41.0862C186.307 42.4899 186.554 43.5141 187.05 44.1589C187.547 44.8037 188.104 45.1276 188.729 45.1276C189.353 45.1276 189.905 44.813 190.38 44.1867C190.855 43.5604 191.096 42.5608 191.096 41.1941C191.096 39.8274 190.855 38.7476 190.38 38.0658C189.902 37.384 189.35 37.0416 188.729 37.0416C188.031 37.0416 187.452 37.4025 186.996 38.1214V38.1245Z" fill="#010101"/>
<path d="M215.852 36.0112C217.449 38.1492 218.155 40.8548 217.973 44.125H206.077C206.041 45.1678 206.324 46.0224 206.93 46.6918C207.536 47.3613 208.243 47.6945 209.05 47.6945C209.857 47.6945 210.5 47.4909 211.088 47.0805C211.676 46.6733 212.042 46.226 212.191 45.7416H217.918C217.22 47.4137 216.136 48.8267 214.667 49.9805C213.199 51.1313 211.326 51.7082 209.05 51.7082C206.37 51.7082 204.249 50.8721 202.69 49.2C201.13 47.5279 200.35 45.2603 200.35 42.3974C200.35 39.5344 201.157 37.2205 202.772 35.4528C204.386 33.6881 206.534 32.8027 209.215 32.8027C212.042 32.8027 214.253 33.8732 215.849 36.0081L215.852 36.0112ZM206.903 37.7666C206.351 38.3991 206.077 39.1796 206.077 40.1082H212.246C212.209 39.0685 211.923 38.2602 211.393 37.6833C210.86 37.1064 210.098 36.8195 209.108 36.8195C208.191 36.8195 207.457 37.1342 206.906 37.7666H206.903Z" fill="#010101"/>
</g>
<defs>
<clipPath id="clip0_2031_2">
<rect width="160" height="29" fill="white" transform="translate(58 26)"/>
</clipPath>
</defs>
</svg>
