<svg width="140" height="29" viewBox="0 0 140 29" fill="none" xmlns="http://www.w3.org/2000/svg">
<g clip-path="url(#clip0_2030_8)">
<path d="M123.702 19.2529C122.925 20.33 121.795 21.4228 119.305 21.4228C119.027 21.4228 118.569 21.4103 118.275 21.3915C116.334 21.26 115.394 19.5347 115.147 18.5358L115.1 18.3542H120.157C121.519 18.3542 125.133 18.3542 125.133 14.3179C125.133 11.3996 122.393 10.0688 119.847 10.0688H118.488C114.978 10.0688 112.88 12.1949 112.88 15.7552V17.7561C112.88 20.3645 114.474 23.2797 117.968 23.5145C118.319 23.5365 118.654 23.549 118.967 23.549C121.926 23.549 123.868 22.6033 125.452 20.3895L123.705 19.2497L123.702 19.2529ZM115.059 15.7552C115.059 13.4944 116.418 12.1981 118.789 12.1981H119.969C120.276 12.1981 122.956 12.2576 122.956 14.3179C122.956 15.5861 122.017 16.228 120.16 16.228H115.059V15.7552Z" fill="#003A86"/>
<path d="M68.9573 17.659C68.9573 19.447 67.1662 21.3758 64.2698 21.3758C61.8493 21.3758 61.2105 19.2278 61.2105 18.0911V10.2598H59.0342V18.5546C59.0342 20.7214 60.2617 23.3266 63.7218 23.5364C63.8721 23.5458 64.0286 23.549 64.1852 23.549C64.9555 23.549 67.4418 23.2077 68.6974 21.6827L68.9573 21.3665V23.2264H71.1367V10.2598H68.9573V17.659Z" fill="#003A86"/>
<path d="M79.9262 10.0218C77.9754 10.0218 76.5475 10.7201 75.4516 11.9319L75.1948 12.2137V10.2567H73.0154V23.2233H75.1948V16.4848C75.1948 13.3692 77.5746 12.1323 79.6099 12.1323C81.1286 12.1323 82.0148 12.9746 82.3029 13.247L83.9906 11.8473C83.665 11.4622 82.3843 10.0187 79.9262 10.0187V10.0218Z" fill="#003A86"/>
<path d="M93.754 9.80577V23.239H96.1024V16.156H105.684V13.8044H96.1024V9.80264C96.1024 8.74426 96.7506 8.15871 97.9311 8.15871H106.962V5.81024H97.9311C95.4323 5.81024 93.754 7.41346 93.754 9.80264V9.80577Z" fill="#003A86"/>
<path d="M111.173 5.81335H108.994V23.2265H111.173V5.81335Z" fill="#003A86"/>
<path d="M133.531 18.0473C133.086 17.6058 133.058 16.967 133.468 16.4973L138.935 10.2598H136.048L132.178 14.6937L132.137 14.3743C132.137 14.3743 132.112 14.1989 131.918 14.0173C131.151 13.3065 127.829 10.2598 127.829 10.2598H124.61C124.61 10.2598 130.071 15.2573 130.39 15.561C130.772 15.918 130.782 16.4785 130.406 16.9232L124.885 23.2233H127.772L131.611 18.8364L131.68 19.1088C131.696 19.1746 131.768 19.3687 131.884 19.4752C132.065 19.638 135.961 23.2233 135.961 23.2233H139.183C139.183 23.2233 133.709 18.2164 133.537 18.0473H133.531Z" fill="#003A86"/>
<path d="M54.5314 20.1484V20.2956H54.5158C54.4469 20.6212 54.1557 20.8686 53.8081 20.8686C53.5419 20.8686 53.2977 20.7214 53.1599 20.4584L48.6164 13.2533L48.5945 13.2126L47.4735 11.4309C47.4735 11.4309 44.6209 6.9187 44.5864 6.86546L44.552 6.81536C43.9978 6.03254 43.0959 5.56598 42.1409 5.56598C40.5126 5.56598 39.1881 6.89051 39.1912 8.56262V8.65343V23.2296H41.5428V8.83505C41.5428 8.43737 41.8685 8.11485 42.263 8.11485C42.5292 8.11485 42.7734 8.26202 42.9112 8.52505L47.4547 15.7333L47.4766 15.774L48.5976 17.5557C48.5976 17.5557 51.4534 22.071 51.4753 22.1023L51.5222 22.1681C52.0765 22.9509 52.9752 23.4175 53.9302 23.4175C55.5585 23.4175 56.883 22.0929 56.8799 20.4177V20.2705V5.80709H54.5314V20.1421V20.1484Z" fill="#003A86"/>
<path d="M87.3536 10.2598H85.1743V23.2264H87.3536V10.2598Z" fill="#003A86"/>
<path d="M86.2639 5.03992C85.4153 5.03992 84.7264 5.7288 84.7264 6.57738C84.7264 7.42596 85.4153 8.11484 86.2639 8.11484C87.1125 8.11484 87.8014 7.42596 87.8014 6.57738C87.8014 5.7288 87.1125 5.03992 86.2639 5.03992Z" fill="#003A86"/>
<path d="M5.30441 6.02315H5.29814C4.73451 5.49397 3.97987 5.16205 3.14382 5.16205C1.40908 5.16205 0 6.57113 0 8.309V28.6154L18.6155 16.942L5.30441 6.02315Z" fill="#003A86"/>
<path d="M26.2496 23.2077H26.2559C26.8195 23.7369 27.5741 24.0657 28.4102 24.0657C30.1481 24.0657 31.554 22.6566 31.554 20.9218V0.615417L12.9385 12.2889L26.2496 23.2077Z" fill="#00ADEC"/>
</g>
<defs>
<clipPath id="clip0_2030_8">
<rect width="139.176" height="28" fill="white" transform="translate(0 0.615417)"/>
</clipPath>
</defs>
</svg>
