<svg width="278" height="54" viewBox="0 0 278 54" fill="none" xmlns="http://www.w3.org/2000/svg">
<path d="M9.25958 36.6958C7.51012 35.8654 6.07132 35.1899 6.07132 33.8335C6.07132 32.7926 6.88882 32.0396 8.50203 32.0396C9.09608 32.0396 9.58113 32.1116 10.0825 32.2057C10.3441 32.25 10.6275 32.2888 10.8564 32.2888C12.268 32.2888 13.0637 31.4362 13.5923 29.814L13.8103 29.1496C13.5869 29.0555 11.2815 28.0257 8.27313 28.0257C3.48801 28.0257 0.964653 31.1372 0.970103 34.3705C0.970103 36.0038 1.4715 37.183 2.26176 38.1132C3.27546 39.3091 4.71971 40.0952 6.07132 40.7651C8.03878 41.7451 9.82093 42.4759 9.82093 43.932C9.82093 45.222 8.50748 45.9584 6.75257 45.9584C4.34366 45.9584 2.24541 44.5632 1.97836 44.3915L0 48.1564C0.348801 48.3557 2.89396 50 7.08502 50C11.5486 50 14.9276 47.3979 14.9276 43.4005C14.9276 39.4032 11.7993 37.9471 9.25958 36.7014V36.6958Z" fill="#EA002C"/>
<path d="M26.7159 38.5506L34.8092 28.4686H29.0431L22.5903 37.1664H22.4922V28.4686H17.7397V49.8228H18.0231C20.0778 49.8228 22.5249 48.854 22.5249 45.3715V40.4662H22.6175L29.2011 49.5571H35.2506L26.7159 38.545V38.5506Z" fill="#EA002C"/>
<path d="M35.0764 5.59741C33.4033 5.91853 30.9235 7.45767 30.9289 10.1872C30.9344 12.6675 32.9291 14.1679 32.9346 17.4178C32.9455 19.8594 31.6211 21.5037 30.1877 22.4173C30.7654 22.3674 31.4031 22.3287 32.1007 22.3287C33.5668 22.3287 34.4497 22.4671 34.5042 22.4782L42.0143 13.1215C39.9324 9.94909 37.4962 7.49089 35.0819 5.60295L35.0764 5.59741Z" fill="#EA002C"/>
<path d="M41.3873 30.8659C42.3356 29.371 42.4501 26.9904 42.5318 24.5654C42.619 22.301 43.0877 20.6013 46.0634 20.5902C46.7229 20.5902 47.3551 20.6788 48.4941 20.6788C52.8596 20.6566 55.71 19.1341 57.4812 18.132C53.8569 15.7845 48.5704 13.3927 42.0086 13.1215C41.5835 14.345 38.2536 23.7349 38.0083 24.4934C38.0465 24.5377 38.6296 25.2021 39.3545 26.4976C40.4281 28.2693 41.0058 29.7752 41.3873 30.877V30.8659Z" fill="#EA002C"/>
<path d="M25.528 23.1979C25.1465 23.1979 24.9557 22.9432 24.9067 22.5003C24.8576 22.0574 22.9828 4.60636 22.6994 1.96545C22.6612 1.5779 22.5631 0.874765 22.5631 0.620086C22.5631 0.210386 22.8247 0 23.13 0C24.0183 0 28.8688 1.15159 34.0136 4.81674C32.5312 5.24305 29.8498 6.80988 29.8607 10.0487C29.8716 12.9166 31.8936 14.5001 31.9045 17.379C31.9208 22.0629 26.6234 23.1979 25.5225 23.1979H25.528Z" fill="#FF7A00"/>
<path d="M41.818 32.1116C41.8997 32.3275 41.976 32.5102 42.0523 32.6431C42.1722 32.848 42.3248 32.9421 42.5156 32.9366C42.6355 32.9366 42.7826 32.8978 42.9461 32.8203C43.344 32.6376 59.0237 25.2242 61.3836 24.1114C61.7269 23.9453 62.3755 23.6519 62.5935 23.5245C62.8169 23.3972 62.915 23.2089 62.915 23.0152C62.915 22.9044 62.8823 22.7992 62.8278 22.6996C62.5335 22.2124 61.013 20.5791 58.4787 18.7908C56.4622 19.9147 53.3175 21.6587 48.6414 21.6809C47.4969 21.6809 47.2353 21.6034 46.456 21.6089C44.1724 21.6144 43.6001 22.6055 43.5184 24.6429C43.502 25.0249 43.4966 25.5453 43.4748 26.1101C43.4039 27.926 43.1914 30.4341 41.8234 32.1116H41.818Z" fill="#FF7A00"/>
<path d="M51.9006 47.5031C53.6773 47.5031 54.691 45.9528 54.691 43.7493C54.691 41.5458 53.6991 39.979 51.9006 39.979C50.1021 39.979 49.1102 41.5181 49.1102 43.7493C49.1102 45.9805 50.1075 47.5031 51.9006 47.5031ZM51.9006 49.7619C48.3635 49.7619 46.2325 47.3923 46.2325 43.7493C46.2325 40.1063 48.3363 37.7201 51.9006 37.7201C55.4649 37.7201 57.5631 40.1174 57.5631 43.7493C57.5631 47.1819 55.6229 49.7619 51.9006 49.7619Z" fill="#FF7A00"/>
<path d="M59.7158 41.6898V49.4519H62.588V41.3797C62.746 41.2358 63.7652 40.2447 64.8933 40.2447C66.3703 40.2447 67.1333 41.3354 67.1333 42.7472V49.4519H70V42.0164C70 38.4841 67.3295 37.7035 65.8362 37.7035C64.0431 37.7035 62.7624 38.8551 62.3863 39.2371C62.2664 38.761 61.716 37.9637 60.4624 37.9637C60.021 37.9637 59.4433 38.0966 59.3888 38.1077C59.476 38.5506 59.7103 39.5859 59.7103 41.6842L59.7158 41.6898Z" fill="#FF7A00"/>
<path d="M87.2559 44.0146H84.6543L84.6367 42.6523H87.0537C87.417 42.6523 87.7393 42.5703 88.0205 42.4062C88.3018 42.2422 88.5215 42.0078 88.6797 41.7031C88.8438 41.3926 88.9258 41.0234 88.9258 40.5957C88.9258 40.127 88.8555 39.7461 88.7148 39.4531C88.5801 39.1543 88.3721 38.9375 88.0908 38.8027C87.8154 38.6621 87.4639 38.5918 87.0361 38.5918H84.9971V50H83.3799V37.2031H87.0361C87.5869 37.2031 88.0791 37.2705 88.5127 37.4053C88.9463 37.5342 89.3125 37.7393 89.6113 38.0205C89.916 38.2959 90.1475 38.6475 90.3057 39.0752C90.4639 39.5029 90.543 40.0156 90.543 40.6133C90.543 41.1406 90.4229 41.6182 90.1826 42.0459C89.9482 42.4678 89.6201 42.8135 89.1982 43.083C88.7764 43.3525 88.29 43.5254 87.7393 43.6016L87.2559 44.0146ZM87.1943 50H83.9863L84.9268 48.6201H87.1943C87.6162 48.6201 87.9736 48.5264 88.2666 48.3389C88.5596 48.1514 88.7822 47.8877 88.9346 47.5479C89.0928 47.2021 89.1719 46.7949 89.1719 46.3262C89.1719 45.8516 89.1074 45.4414 88.9785 45.0957C88.8496 44.75 88.6445 44.4834 88.3633 44.2959C88.082 44.1084 87.7129 44.0146 87.2559 44.0146H85.1729L85.1904 42.6523H88.0029L88.3633 43.1445C88.8906 43.1973 89.333 43.373 89.6904 43.6719C90.0537 43.9648 90.3262 44.3398 90.5078 44.7969C90.6953 45.2539 90.7891 45.7578 90.7891 46.3086C90.7891 47.1055 90.6396 47.7793 90.3408 48.3301C90.0479 48.875 89.6318 49.291 89.0928 49.5781C88.5537 49.8594 87.9209 50 87.1943 50ZM97.2933 48.374V43.2148C97.2933 42.8398 97.2347 42.5381 97.1175 42.3096C97.0062 42.0811 96.8363 41.9141 96.6078 41.8086C96.3851 41.7031 96.1039 41.6504 95.764 41.6504C95.4359 41.6504 95.1517 41.7178 94.9115 41.8525C94.6771 41.9873 94.4955 42.166 94.3666 42.3887C94.2435 42.6113 94.182 42.8574 94.182 43.127H92.6263C92.6263 42.7871 92.6996 42.4502 92.8461 42.1162C92.9984 41.7822 93.2152 41.4805 93.4964 41.2109C93.7777 40.9355 94.1146 40.7188 94.5072 40.5605C94.9056 40.3965 95.3509 40.3145 95.8431 40.3145C96.4291 40.3145 96.9476 40.4111 97.3988 40.6045C97.85 40.792 98.2045 41.0996 98.4623 41.5273C98.7201 41.9551 98.849 42.5234 98.849 43.2324V47.9258C98.849 48.2422 98.8724 48.5791 98.9193 48.9365C98.972 49.2939 99.0453 49.6016 99.139 49.8594V50H97.5306C97.4545 49.8125 97.3959 49.5635 97.3548 49.2529C97.3138 48.9365 97.2933 48.6436 97.2933 48.374ZM97.5394 44.2344L97.557 45.377H96.4759C96.1068 45.377 95.7699 45.418 95.4652 45.5C95.1664 45.582 94.9086 45.7021 94.6918 45.8604C94.475 46.0127 94.308 46.2031 94.1908 46.4316C94.0795 46.6602 94.0238 46.9209 94.0238 47.2139C94.0238 47.5947 94.0765 47.8994 94.182 48.1279C94.2875 48.3506 94.4457 48.5117 94.6566 48.6113C94.8675 48.7109 95.1341 48.7607 95.4564 48.7607C95.849 48.7607 96.1947 48.6699 96.4935 48.4883C96.7923 48.3066 97.0238 48.0869 97.1879 47.8291C97.3578 47.5713 97.4369 47.3311 97.4252 47.1084L97.7679 47.8379C97.7445 48.0664 97.6683 48.3154 97.5394 48.585C97.4164 48.8486 97.2435 49.1035 97.0209 49.3496C96.7982 49.5898 96.5345 49.7891 96.2298 49.9473C95.931 50.0996 95.5941 50.1758 95.2191 50.1758C94.6683 50.1758 94.1849 50.0703 93.7689 49.8594C93.3588 49.6484 93.0394 49.3379 92.8109 48.9277C92.5824 48.5176 92.4681 48.0107 92.4681 47.4072C92.4681 46.9502 92.5472 46.5283 92.7054 46.1416C92.8636 45.7549 93.098 45.4209 93.4086 45.1396C93.7191 44.8525 94.1088 44.6299 94.5775 44.4717C95.0521 44.3135 95.6 44.2344 96.2211 44.2344H97.5394ZM104.378 40.4902V41.7383H99.9392V40.4902H104.378ZM101.389 38.1787H102.945V47.6445C102.945 47.9668 102.983 48.21 103.059 48.374C103.141 48.5381 103.244 48.6465 103.367 48.6992C103.49 48.752 103.622 48.7783 103.762 48.7783C103.868 48.7783 103.985 48.7666 104.114 48.7432C104.243 48.7139 104.331 48.6904 104.378 48.6729L104.369 50C104.263 50.041 104.123 50.0791 103.947 50.1143C103.771 50.1553 103.549 50.1758 103.279 50.1758C102.945 50.1758 102.634 50.0967 102.347 49.9385C102.06 49.7803 101.829 49.5166 101.653 49.1475C101.477 48.7725 101.389 48.2686 101.389 47.6357V38.1787ZM109.344 40.4902V41.7383H104.905V40.4902H109.344ZM106.356 38.1787H107.911V47.6445C107.911 47.9668 107.949 48.21 108.025 48.374C108.108 48.5381 108.21 48.6465 108.333 48.6992C108.456 48.752 108.588 48.7783 108.729 48.7783C108.834 48.7783 108.951 48.7666 109.08 48.7432C109.209 48.7139 109.297 48.6904 109.344 48.6729L109.335 50C109.23 50.041 109.089 50.0791 108.913 50.1143C108.737 50.1553 108.515 50.1758 108.245 50.1758C107.911 50.1758 107.601 50.0967 107.314 49.9385C107.026 49.7803 106.795 49.5166 106.619 49.1475C106.443 48.7725 106.356 48.2686 106.356 47.6357V38.1787ZM114.24 50.1758C113.671 50.1758 113.159 50.0908 112.702 49.9209C112.245 49.751 111.855 49.4932 111.533 49.1475C111.21 48.7959 110.964 48.3535 110.794 47.8203C110.624 47.2871 110.539 46.6572 110.539 45.9307V44.8584C110.539 44.0205 110.636 43.3115 110.83 42.7314C111.029 42.1514 111.295 41.6855 111.629 41.334C111.963 40.9766 112.341 40.7188 112.763 40.5605C113.185 40.3965 113.619 40.3145 114.064 40.3145C114.662 40.3145 115.171 40.4111 115.593 40.6045C116.015 40.7979 116.358 41.085 116.622 41.4658C116.885 41.8467 117.079 42.3154 117.202 42.8721C117.331 43.4287 117.395 44.0703 117.395 44.7969V45.7021H111.454V44.375H115.839V44.1553C115.816 43.6631 115.748 43.2295 115.637 42.8545C115.532 42.4795 115.356 42.1865 115.11 41.9756C114.864 41.7588 114.515 41.6504 114.064 41.6504C113.777 41.6504 113.51 41.7002 113.264 41.7998C113.024 41.8936 112.816 42.0605 112.64 42.3008C112.47 42.5352 112.335 42.8604 112.236 43.2764C112.142 43.6924 112.095 44.2197 112.095 44.8584V45.9307C112.095 46.4404 112.142 46.8799 112.236 47.249C112.335 47.6123 112.479 47.9141 112.666 48.1543C112.86 48.3887 113.094 48.5645 113.37 48.6816C113.651 48.793 113.97 48.8486 114.328 48.8486C114.849 48.8486 115.28 48.749 115.62 48.5498C115.959 48.3447 116.255 48.084 116.507 47.7676L117.325 48.7432C117.155 48.9834 116.932 49.2148 116.657 49.4375C116.387 49.6543 116.053 49.833 115.655 49.9736C115.262 50.1084 114.79 50.1758 114.24 50.1758ZM120.471 41.9844V50H118.916V40.4902H120.419L120.471 41.9844ZM122.836 40.4375L122.845 41.9492C122.716 41.9199 122.598 41.9023 122.493 41.8965C122.393 41.8848 122.276 41.8789 122.141 41.8789C121.848 41.8789 121.591 41.9375 121.368 42.0547C121.151 42.1719 120.964 42.3359 120.805 42.5469C120.647 42.7578 120.521 43.0098 120.428 43.3027C120.334 43.5898 120.269 43.9062 120.234 44.252L119.83 44.5156C119.83 43.9414 119.874 43.4023 119.962 42.8984C120.055 42.3945 120.199 41.9492 120.392 41.5625C120.586 41.1699 120.832 40.8652 121.131 40.6484C121.435 40.4258 121.799 40.3145 122.221 40.3145C122.314 40.3145 122.429 40.3291 122.563 40.3584C122.704 40.3818 122.795 40.4082 122.836 40.4375ZM126.404 49.0156L128.523 40.4902H130.175L127.037 51.4678C126.961 51.7021 126.859 51.9541 126.73 52.2236C126.607 52.499 126.448 52.7598 126.255 53.0059C126.062 53.252 125.83 53.4512 125.561 53.6035C125.291 53.7617 124.975 53.8408 124.611 53.8408C124.5 53.8408 124.357 53.8232 124.181 53.7881C124.011 53.7529 123.888 53.7236 123.812 53.7002V52.3818C123.847 52.3877 123.903 52.3936 123.979 52.3994C124.055 52.4111 124.111 52.417 124.146 52.417C124.45 52.417 124.708 52.3672 124.919 52.2676C125.136 52.1738 125.32 52.0127 125.473 51.7842C125.625 51.5615 125.754 51.2539 125.86 50.8613L126.404 49.0156ZM125.033 40.4902L126.923 47.873L127.327 49.5869L126.22 50.1846L123.337 40.4902H125.033ZM135.836 37.2031H137.4L140.749 47.6357L144.089 37.2031H145.653L141.355 50H140.125L135.836 37.2031ZM135.326 37.2031H136.697L136.934 45.0078V50H135.326V37.2031ZM144.783 37.2031H146.154V50H144.546V45.0078L144.783 37.2031ZM153.019 48.374V43.2148C153.019 42.8398 152.96 42.5381 152.843 42.3096C152.732 42.0811 152.562 41.9141 152.333 41.8086C152.111 41.7031 151.829 41.6504 151.489 41.6504C151.161 41.6504 150.877 41.7178 150.637 41.8525C150.403 41.9873 150.221 42.166 150.092 42.3887C149.969 42.6113 149.907 42.8574 149.907 43.127H148.352C148.352 42.7871 148.425 42.4502 148.572 42.1162C148.724 41.7822 148.941 41.4805 149.222 41.2109C149.503 40.9355 149.84 40.7188 150.233 40.5605C150.631 40.3965 151.076 40.3145 151.569 40.3145C152.155 40.3145 152.673 40.4111 153.124 40.6045C153.575 40.792 153.93 41.0996 154.188 41.5273C154.446 41.9551 154.574 42.5234 154.574 43.2324V47.9258C154.574 48.2422 154.598 48.5791 154.645 48.9365C154.698 49.2939 154.771 49.6016 154.864 49.8594V50H153.256C153.18 49.8125 153.121 49.5635 153.08 49.2529C153.039 48.9365 153.019 48.6436 153.019 48.374ZM153.265 44.2344L153.282 45.377H152.201C151.832 45.377 151.495 45.418 151.191 45.5C150.892 45.582 150.634 45.7021 150.417 45.8604C150.2 46.0127 150.033 46.2031 149.916 46.4316C149.805 46.6602 149.749 46.9209 149.749 47.2139C149.749 47.5947 149.802 47.8994 149.907 48.1279C150.013 48.3506 150.171 48.5117 150.382 48.6113C150.593 48.7109 150.86 48.7607 151.182 48.7607C151.574 48.7607 151.92 48.6699 152.219 48.4883C152.518 48.3066 152.749 48.0869 152.913 47.8291C153.083 47.5713 153.162 47.3311 153.151 47.1084L153.493 47.8379C153.47 48.0664 153.394 48.3154 153.265 48.585C153.142 48.8486 152.969 49.1035 152.746 49.3496C152.524 49.5898 152.26 49.7891 151.955 49.9473C151.656 50.0996 151.32 50.1758 150.945 50.1758C150.394 50.1758 149.91 50.0703 149.494 49.8594C149.084 49.6484 148.765 49.3379 148.536 48.9277C148.308 48.5176 148.194 48.0107 148.194 47.4072C148.194 46.9502 148.273 46.5283 148.431 46.1416C148.589 45.7549 148.823 45.4209 149.134 45.1396C149.445 44.8525 149.834 44.6299 150.303 44.4717C150.778 44.3135 151.325 44.2344 151.947 44.2344H153.265ZM158.187 42.5205V50H156.631V40.4902H158.099L158.187 42.5205ZM157.809 44.8848L157.176 44.8584C157.171 44.208 157.244 43.6074 157.396 43.0566C157.554 42.5 157.777 42.0166 158.064 41.6064C158.357 41.1963 158.706 40.8799 159.11 40.6572C159.514 40.4287 159.963 40.3145 160.455 40.3145C160.841 40.3145 161.193 40.3789 161.509 40.5078C161.826 40.6309 162.095 40.8301 162.318 41.1055C162.541 41.3809 162.711 41.7383 162.828 42.1777C162.951 42.6113 163.012 43.1416 163.012 43.7686V50H161.457V43.751C161.457 43.2529 161.401 42.8545 161.29 42.5557C161.184 42.251 161.02 42.0312 160.797 41.8965C160.581 41.7559 160.305 41.6855 159.971 41.6855C159.667 41.6855 159.382 41.7705 159.119 41.9404C158.855 42.1104 158.624 42.3447 158.424 42.6436C158.231 42.9424 158.079 43.2852 157.967 43.6719C157.862 44.0527 157.809 44.457 157.809 44.8848ZM169.648 48.374V43.2148C169.648 42.8398 169.59 42.5381 169.473 42.3096C169.361 42.0811 169.191 41.9141 168.963 41.8086C168.74 41.7031 168.459 41.6504 168.119 41.6504C167.791 41.6504 167.507 41.7178 167.267 41.8525C167.032 41.9873 166.851 42.166 166.722 42.3887C166.599 42.6113 166.537 42.8574 166.537 43.127H164.981C164.981 42.7871 165.055 42.4502 165.201 42.1162C165.353 41.7822 165.57 41.4805 165.852 41.2109C166.133 40.9355 166.47 40.7188 166.862 40.5605C167.261 40.3965 167.706 40.3145 168.198 40.3145C168.784 40.3145 169.303 40.4111 169.754 40.6045C170.205 40.792 170.56 41.0996 170.817 41.5273C171.075 41.9551 171.204 42.5234 171.204 43.2324V47.9258C171.204 48.2422 171.228 48.5791 171.274 48.9365C171.327 49.2939 171.4 49.6016 171.494 49.8594V50H169.886C169.81 49.8125 169.751 49.5635 169.71 49.2529C169.669 48.9365 169.648 48.6436 169.648 48.374ZM169.894 44.2344L169.912 45.377H168.831C168.462 45.377 168.125 45.418 167.82 45.5C167.521 45.582 167.264 45.7021 167.047 45.8604C166.83 46.0127 166.663 46.2031 166.546 46.4316C166.435 46.6602 166.379 46.9209 166.379 47.2139C166.379 47.5947 166.432 47.8994 166.537 48.1279C166.643 48.3506 166.801 48.5117 167.012 48.6113C167.223 48.7109 167.489 48.7607 167.811 48.7607C168.204 48.7607 168.55 48.6699 168.849 48.4883C169.147 48.3066 169.379 48.0869 169.543 47.8291C169.713 47.5713 169.792 47.3311 169.78 47.1084L170.123 47.8379C170.1 48.0664 170.023 48.3154 169.894 48.585C169.771 48.8486 169.599 49.1035 169.376 49.3496C169.153 49.5898 168.89 49.7891 168.585 49.9473C168.286 50.0996 167.949 50.1758 167.574 50.1758C167.023 50.1758 166.54 50.0703 166.124 49.8594C165.714 49.6484 165.394 49.3379 165.166 48.9277C164.937 48.5176 164.823 48.0107 164.823 47.4072C164.823 46.9502 164.902 46.5283 165.061 46.1416C165.219 45.7549 165.453 45.4209 165.764 45.1396C166.074 44.8525 166.464 44.6299 166.933 44.4717C167.407 44.3135 167.955 44.2344 168.576 44.2344H169.894ZM178.411 40.4902H179.809V50.0791C179.809 50.917 179.662 51.6084 179.369 52.1533C179.082 52.6982 178.681 53.0996 178.165 53.3574C177.65 53.6211 177.055 53.7529 176.381 53.7529C176.141 53.7529 175.839 53.709 175.476 53.6211C175.113 53.5332 174.749 53.3984 174.386 53.2168C174.023 53.041 173.724 52.8184 173.49 52.5488L174.131 51.4678C174.465 51.8076 174.82 52.0508 175.195 52.1973C175.57 52.3438 175.927 52.417 176.267 52.417C176.671 52.417 177.023 52.3438 177.322 52.1973C177.62 52.0508 177.852 51.8105 178.016 51.4766C178.18 51.1484 178.262 50.709 178.262 50.1582V42.582L178.411 40.4902ZM172.945 45.7021V44.8145C172.945 44.0293 173.018 43.3555 173.164 42.793C173.311 42.2246 173.522 41.7588 173.797 41.3955C174.078 41.0264 174.415 40.7539 174.808 40.5781C175.201 40.4023 175.64 40.3145 176.126 40.3145C176.618 40.3145 177.043 40.4141 177.401 40.6133C177.758 40.8125 178.054 41.1025 178.288 41.4834C178.529 41.8584 178.716 42.3154 178.851 42.8545C178.992 43.3877 179.088 43.9912 179.141 44.665V45.8516C179.088 46.5195 178.992 47.1201 178.851 47.6533C178.716 48.1865 178.526 48.6406 178.28 49.0156C178.039 49.3906 177.741 49.6777 177.383 49.877C177.026 50.0762 176.601 50.1758 176.109 50.1758C175.628 50.1758 175.195 50.085 174.808 49.9033C174.421 49.7158 174.087 49.4375 173.806 49.0684C173.531 48.6934 173.317 48.2275 173.164 47.6709C173.018 47.1084 172.945 46.4521 172.945 45.7021ZM174.5 44.8145V45.7021C174.5 46.2295 174.538 46.6895 174.615 47.082C174.691 47.4688 174.808 47.791 174.966 48.0488C175.13 48.3008 175.338 48.4883 175.59 48.6113C175.848 48.7344 176.156 48.7959 176.513 48.7959C176.947 48.7959 177.301 48.6904 177.576 48.4795C177.852 48.2686 178.072 47.9902 178.236 47.6445C178.406 47.293 178.54 46.915 178.64 46.5107V44.0146C178.581 43.7158 178.496 43.4287 178.385 43.1533C178.28 42.8721 178.142 42.623 177.972 42.4062C177.802 42.1836 177.597 42.0078 177.357 41.8789C177.122 41.75 176.847 41.6855 176.531 41.6855C176.173 41.6855 175.866 41.75 175.608 41.8789C175.35 42.0078 175.139 42.2012 174.975 42.459C174.811 42.7168 174.691 43.042 174.615 43.4346C174.538 43.8271 174.5 44.2871 174.5 44.8145ZM185.179 50.1758C184.611 50.1758 184.098 50.0908 183.641 49.9209C183.184 49.751 182.795 49.4932 182.472 49.1475C182.15 48.7959 181.904 48.3535 181.734 47.8203C181.564 47.2871 181.479 46.6572 181.479 45.9307V44.8584C181.479 44.0205 181.576 43.3115 181.769 42.7314C181.968 42.1514 182.235 41.6855 182.569 41.334C182.903 40.9766 183.281 40.7188 183.703 40.5605C184.125 40.3965 184.558 40.3145 185.004 40.3145C185.601 40.3145 186.111 40.4111 186.533 40.6045C186.955 40.7979 187.298 41.085 187.561 41.4658C187.825 41.8467 188.018 42.3154 188.141 42.8721C188.27 43.4287 188.335 44.0703 188.335 44.7969V45.7021H182.393V44.375H186.779V44.1553C186.756 43.6631 186.688 43.2295 186.577 42.8545C186.471 42.4795 186.296 42.1865 186.049 41.9756C185.803 41.7588 185.455 41.6504 185.004 41.6504C184.716 41.6504 184.45 41.7002 184.204 41.7998C183.964 41.8936 183.756 42.0605 183.58 42.3008C183.41 42.5352 183.275 42.8604 183.175 43.2764C183.082 43.6924 183.035 44.2197 183.035 44.8584V45.9307C183.035 46.4404 183.082 46.8799 183.175 47.249C183.275 47.6123 183.419 47.9141 183.606 48.1543C183.799 48.3887 184.034 48.5645 184.309 48.6816C184.591 48.793 184.91 48.8486 185.267 48.8486C185.789 48.8486 186.219 48.749 186.559 48.5498C186.899 48.3447 187.195 48.084 187.447 47.7676L188.264 48.7432C188.094 48.9834 187.872 49.2148 187.596 49.4375C187.327 49.6543 186.993 49.833 186.594 49.9736C186.202 50.1084 185.73 50.1758 185.179 50.1758ZM191.411 42.3799V50H189.864V40.4902H191.323L191.411 42.3799ZM191.095 44.8848L190.374 44.8584C190.368 44.208 190.433 43.6074 190.567 43.0566C190.702 42.5 190.904 42.0166 191.174 41.6064C191.449 41.1963 191.792 40.8799 192.202 40.6572C192.618 40.4287 193.102 40.3145 193.652 40.3145C194.016 40.3145 194.353 40.3789 194.663 40.5078C194.98 40.6309 195.255 40.8271 195.489 41.0967C195.724 41.3662 195.905 41.7119 196.034 42.1338C196.169 42.5557 196.236 43.0654 196.236 43.6631V50H194.681V43.7422C194.681 43.2441 194.613 42.8457 194.479 42.5469C194.35 42.248 194.165 42.0312 193.925 41.8965C193.685 41.7559 193.397 41.6855 193.064 41.6855C192.683 41.6855 192.363 41.7705 192.106 41.9404C191.854 42.1104 191.651 42.3447 191.499 42.6436C191.353 42.9424 191.247 43.2852 191.183 43.6719C191.124 44.0527 191.095 44.457 191.095 44.8848ZM196.219 43.9883L195.182 44.3223C195.176 43.8008 195.24 43.2998 195.375 42.8193C195.51 42.3389 195.709 41.9111 195.973 41.5361C196.242 41.1611 196.576 40.8652 196.975 40.6484C197.373 40.4258 197.836 40.3145 198.363 40.3145C198.797 40.3145 199.181 40.3818 199.515 40.5166C199.849 40.6514 200.13 40.8594 200.358 41.1406C200.593 41.416 200.769 41.7705 200.886 42.2041C201.003 42.6377 201.062 43.1533 201.062 43.751V50H199.506V43.7334C199.506 43.2002 199.439 42.7871 199.304 42.4941C199.175 42.1953 198.99 41.9873 198.75 41.8701C198.51 41.7471 198.223 41.6855 197.889 41.6855C197.619 41.6855 197.379 41.7471 197.168 41.8701C196.963 41.9932 196.79 42.1631 196.649 42.3799C196.509 42.5908 196.4 42.834 196.324 43.1094C196.254 43.3848 196.219 43.6777 196.219 43.9883ZM206.45 50.1758C205.881 50.1758 205.369 50.0908 204.912 49.9209C204.454 49.751 204.065 49.4932 203.743 49.1475C203.42 48.7959 203.174 48.3535 203.004 47.8203C202.834 47.2871 202.749 46.6572 202.749 45.9307V44.8584C202.749 44.0205 202.846 43.3115 203.039 42.7314C203.239 42.1514 203.505 41.6855 203.839 41.334C204.173 40.9766 204.551 40.7188 204.973 40.5605C205.395 40.3965 205.829 40.3145 206.274 40.3145C206.871 40.3145 207.381 40.4111 207.803 40.6045C208.225 40.7979 208.568 41.085 208.831 41.4658C209.095 41.8467 209.288 42.3154 209.412 42.8721C209.54 43.4287 209.605 44.0703 209.605 44.7969V45.7021H203.663V44.375H208.049V44.1553C208.026 43.6631 207.958 43.2295 207.847 42.8545C207.742 42.4795 207.566 42.1865 207.32 41.9756C207.074 41.7588 206.725 41.6504 206.274 41.6504C205.987 41.6504 205.72 41.7002 205.474 41.7998C205.234 41.8936 205.026 42.0605 204.85 42.3008C204.68 42.5352 204.545 42.8604 204.446 43.2764C204.352 43.6924 204.305 44.2197 204.305 44.8584V45.9307C204.305 46.4404 204.352 46.8799 204.446 47.249C204.545 47.6123 204.689 47.9141 204.876 48.1543C205.07 48.3887 205.304 48.5645 205.579 48.6816C205.861 48.793 206.18 48.8486 206.537 48.8486C207.059 48.8486 207.49 48.749 207.829 48.5498C208.169 48.3447 208.465 48.084 208.717 47.7676L209.535 48.7432C209.365 48.9834 209.142 49.2148 208.867 49.4375C208.597 49.6543 208.263 49.833 207.865 49.9736C207.472 50.1084 207 50.1758 206.45 50.1758ZM212.681 42.5205V50H211.126V40.4902H212.594L212.681 42.5205ZM212.303 44.8848L211.671 44.8584C211.665 44.208 211.738 43.6074 211.89 43.0566C212.049 42.5 212.271 42.0166 212.558 41.6064C212.851 41.1963 213.2 40.8799 213.604 40.6572C214.009 40.4287 214.457 40.3145 214.949 40.3145C215.336 40.3145 215.687 40.3789 216.004 40.5078C216.32 40.6309 216.59 40.8301 216.812 41.1055C217.035 41.3809 217.205 41.7383 217.322 42.1777C217.445 42.6113 217.507 43.1416 217.507 43.7686V50H215.951V43.751C215.951 43.2529 215.895 42.8545 215.784 42.5557C215.678 42.251 215.514 42.0312 215.292 41.8965C215.075 41.7559 214.8 41.6855 214.466 41.6855C214.161 41.6855 213.877 41.7705 213.613 41.9404C213.349 42.1104 213.118 42.3447 212.919 42.6436C212.725 42.9424 212.573 43.2852 212.462 43.6719C212.356 44.0527 212.303 44.457 212.303 44.8848ZM222.956 40.4902V41.7383H218.518V40.4902H222.956ZM219.968 38.1787H221.524V47.6445C221.524 47.9668 221.562 48.21 221.638 48.374C221.72 48.5381 221.822 48.6465 221.945 48.6992C222.068 48.752 222.2 48.7783 222.341 48.7783C222.446 48.7783 222.564 48.7666 222.693 48.7432C222.821 48.7139 222.909 48.6904 222.956 48.6729L222.947 50C222.842 50.041 222.701 50.0791 222.526 50.1143C222.35 50.1553 222.127 50.1758 221.858 50.1758C221.524 50.1758 221.213 50.0967 220.926 49.9385C220.639 49.7803 220.407 49.5166 220.232 49.1475C220.056 48.7725 219.968 48.2686 219.968 47.6357V38.1787ZM234.031 46.7656C234.031 46.4668 233.996 46.2031 233.926 45.9746C233.855 45.7402 233.732 45.5293 233.556 45.3418C233.381 45.1543 233.135 44.9756 232.818 44.8057C232.502 44.6357 232.1 44.4629 231.614 44.2871C231.087 44.0996 230.609 43.8916 230.181 43.6631C229.754 43.4287 229.388 43.1621 229.083 42.8633C228.784 42.5645 228.553 42.2217 228.389 41.835C228.224 41.4482 228.142 41.0059 228.142 40.5078C228.142 40.0098 228.227 39.5498 228.397 39.1279C228.573 38.7061 228.819 38.3398 229.136 38.0293C229.458 37.7129 229.845 37.4668 230.296 37.291C230.747 37.1152 231.251 37.0273 231.807 37.0273C232.639 37.0273 233.34 37.2119 233.908 37.5811C234.482 37.9443 234.916 38.4219 235.209 39.0137C235.502 39.5996 235.648 40.2266 235.648 40.8945H234.031C234.031 40.4141 233.952 39.9893 233.794 39.6201C233.641 39.2451 233.401 38.9521 233.073 38.7412C232.751 38.5244 232.329 38.416 231.807 38.416C231.339 38.416 230.952 38.5068 230.647 38.6885C230.348 38.8701 230.126 39.1162 229.979 39.4268C229.839 39.7373 229.768 40.0918 229.768 40.4902C229.768 40.7598 229.815 41.0059 229.909 41.2285C230.003 41.4453 230.146 41.6475 230.34 41.835C230.539 42.0225 230.785 42.1953 231.078 42.3535C231.377 42.5117 231.728 42.6641 232.133 42.8105C232.76 43.0156 233.296 43.2441 233.741 43.4961C234.186 43.748 234.55 44.0322 234.831 44.3486C235.112 44.6592 235.317 45.0137 235.446 45.4121C235.581 45.8047 235.648 46.25 235.648 46.748C235.648 47.2695 235.56 47.7412 235.385 48.1631C235.215 48.585 234.966 48.9453 234.638 49.2441C234.309 49.543 233.914 49.7744 233.451 49.9385C232.988 50.0967 232.467 50.1758 231.887 50.1758C231.383 50.1758 230.888 50.0938 230.401 49.9297C229.921 49.7656 229.484 49.5195 229.092 49.1914C228.699 48.8633 228.386 48.459 228.151 47.9785C227.917 47.4922 227.8 46.9297 227.8 46.291H229.417C229.417 46.7305 229.481 47.1084 229.61 47.4248C229.739 47.7354 229.918 47.9932 230.146 48.1982C230.375 48.4033 230.636 48.5557 230.929 48.6553C231.227 48.749 231.547 48.7959 231.887 48.7959C232.355 48.7959 232.748 48.7139 233.064 48.5498C233.387 48.3857 233.627 48.1514 233.785 47.8467C233.949 47.542 234.031 47.1816 234.031 46.7656ZM239.402 49.0156L241.52 40.4902H243.172L240.034 51.4678C239.958 51.7021 239.856 51.9541 239.727 52.2236C239.604 52.499 239.446 52.7598 239.252 53.0059C239.059 53.252 238.827 53.4512 238.558 53.6035C238.288 53.7617 237.972 53.8408 237.609 53.8408C237.497 53.8408 237.354 53.8232 237.178 53.7881C237.008 53.7529 236.885 53.7236 236.809 53.7002V52.3818C236.844 52.3877 236.9 52.3936 236.976 52.3994C237.052 52.4111 237.108 52.417 237.143 52.417C237.447 52.417 237.705 52.3672 237.916 52.2676C238.133 52.1738 238.318 52.0127 238.47 51.7842C238.622 51.5615 238.751 51.2539 238.857 50.8613L239.402 49.0156ZM238.03 40.4902L239.92 47.873L240.324 49.5869L239.217 50.1846L236.334 40.4902H238.03ZM248.956 47.5654C248.956 47.3252 248.897 47.1143 248.78 46.9326C248.663 46.751 248.469 46.5752 248.2 46.4053C247.936 46.2354 247.579 46.0537 247.128 45.8604C246.688 45.6787 246.293 45.5 245.941 45.3242C245.595 45.1426 245.302 44.9463 245.062 44.7354C244.822 44.5244 244.637 44.2812 244.508 44.0059C244.385 43.7246 244.324 43.3936 244.324 43.0127C244.324 42.6318 244.394 42.2803 244.535 41.958C244.681 41.6299 244.886 41.3428 245.15 41.0967C245.414 40.8506 245.73 40.6602 246.099 40.5254C246.468 40.3848 246.881 40.3145 247.338 40.3145C247.989 40.3145 248.543 40.4404 249 40.6924C249.457 40.9443 249.805 41.29 250.045 41.7295C250.292 42.1631 250.415 42.6523 250.415 43.1973H248.868C248.868 42.9336 248.809 42.6846 248.692 42.4502C248.575 42.2158 248.402 42.0254 248.173 41.8789C247.945 41.7266 247.667 41.6504 247.338 41.6504C246.993 41.6504 246.711 41.7119 246.495 41.835C246.278 41.958 246.12 42.1191 246.02 42.3184C245.926 42.5117 245.879 42.7256 245.879 42.96C245.879 43.1357 245.903 43.2881 245.95 43.417C246.003 43.54 246.09 43.6572 246.213 43.7686C246.336 43.874 246.503 43.9854 246.714 44.1025C246.931 44.2139 247.207 44.3428 247.541 44.4893C248.185 44.7412 248.727 44.9961 249.167 45.2539C249.606 45.5117 249.94 45.8135 250.169 46.1592C250.397 46.5049 250.511 46.9326 250.511 47.4424C250.511 47.8584 250.435 48.2363 250.283 48.5762C250.136 48.9102 249.925 49.1973 249.65 49.4375C249.375 49.6777 249.044 49.8623 248.657 49.9912C248.276 50.1143 247.848 50.1758 247.374 50.1758C246.659 50.1758 246.052 50.0352 245.554 49.7539C245.062 49.4668 244.687 49.0947 244.429 48.6377C244.177 48.1748 244.051 47.6797 244.051 47.1523H245.607C245.625 47.5977 245.724 47.9434 245.906 48.1895C246.093 48.4355 246.319 48.6055 246.583 48.6992C246.846 48.793 247.11 48.8398 247.374 48.8398C247.719 48.8398 248.009 48.79 248.244 48.6904C248.478 48.585 248.654 48.4355 248.771 48.2422C248.894 48.0488 248.956 47.8232 248.956 47.5654ZM255.662 40.4902V41.7383H251.224V40.4902H255.662ZM252.674 38.1787H254.229V47.6445C254.229 47.9668 254.268 48.21 254.344 48.374C254.426 48.5381 254.528 48.6465 254.651 48.6992C254.774 48.752 254.906 48.7783 255.047 48.7783C255.152 48.7783 255.269 48.7666 255.398 48.7432C255.527 48.7139 255.615 48.6904 255.662 48.6729L255.653 50C255.548 50.041 255.407 50.0791 255.231 50.1143C255.056 50.1553 254.833 50.1758 254.563 50.1758C254.229 50.1758 253.919 50.0967 253.632 49.9385C253.345 49.7803 253.113 49.5166 252.937 49.1475C252.762 48.7725 252.674 48.2686 252.674 47.6357V38.1787ZM260.558 50.1758C259.99 50.1758 259.477 50.0908 259.02 49.9209C258.563 49.751 258.173 49.4932 257.851 49.1475C257.529 48.7959 257.283 48.3535 257.113 47.8203C256.943 47.2871 256.858 46.6572 256.858 45.9307V44.8584C256.858 44.0205 256.954 43.3115 257.148 42.7314C257.347 42.1514 257.614 41.6855 257.948 41.334C258.282 40.9766 258.659 40.7188 259.081 40.5605C259.503 40.3965 259.937 40.3145 260.382 40.3145C260.98 40.3145 261.49 40.4111 261.911 40.6045C262.333 40.7979 262.676 41.085 262.94 41.4658C263.203 41.8467 263.397 42.3154 263.52 42.8721C263.649 43.4287 263.713 44.0703 263.713 44.7969V45.7021H257.772V44.375H262.158V44.1553C262.134 43.6631 262.067 43.2295 261.955 42.8545C261.85 42.4795 261.674 42.1865 261.428 41.9756C261.182 41.7588 260.833 41.6504 260.382 41.6504C260.095 41.6504 259.828 41.7002 259.582 41.7998C259.342 41.8936 259.134 42.0605 258.958 42.3008C258.788 42.5352 258.654 42.8604 258.554 43.2764C258.46 43.6924 258.413 44.2197 258.413 44.8584V45.9307C258.413 46.4404 258.46 46.8799 258.554 47.249C258.654 47.6123 258.797 47.9141 258.985 48.1543C259.178 48.3887 259.412 48.5645 259.688 48.6816C259.969 48.793 260.288 48.8486 260.646 48.8486C261.167 48.8486 261.598 48.749 261.938 48.5498C262.278 48.3447 262.574 48.084 262.825 47.7676L263.643 48.7432C263.473 48.9834 263.25 49.2148 262.975 49.4375C262.705 49.6543 262.371 49.833 261.973 49.9736C261.58 50.1084 261.109 50.1758 260.558 50.1758ZM266.79 42.3799V50H265.243V40.4902H266.702L266.79 42.3799ZM266.473 44.8848L265.753 44.8584C265.747 44.208 265.811 43.6074 265.946 43.0566C266.081 42.5 266.283 42.0166 266.552 41.6064C266.828 41.1963 267.171 40.8799 267.581 40.6572C267.997 40.4287 268.48 40.3145 269.031 40.3145C269.394 40.3145 269.731 40.3789 270.042 40.5078C270.358 40.6309 270.633 40.8271 270.868 41.0967C271.102 41.3662 271.284 41.7119 271.413 42.1338C271.548 42.5557 271.615 43.0654 271.615 43.6631V50H270.059V43.7422C270.059 43.2441 269.992 42.8457 269.857 42.5469C269.728 42.248 269.544 42.0312 269.303 41.8965C269.063 41.7559 268.776 41.6855 268.442 41.6855C268.061 41.6855 267.742 41.7705 267.484 41.9404C267.232 42.1104 267.03 42.3447 266.878 42.6436C266.731 42.9424 266.626 43.2852 266.561 43.6719C266.503 44.0527 266.473 44.457 266.473 44.8848ZM271.597 43.9883L270.56 44.3223C270.554 43.8008 270.619 43.2998 270.754 42.8193C270.888 42.3389 271.088 41.9111 271.351 41.5361C271.621 41.1611 271.955 40.8652 272.353 40.6484C272.752 40.4258 273.214 40.3145 273.742 40.3145C274.175 40.3145 274.559 40.3818 274.893 40.5166C275.227 40.6514 275.508 40.8594 275.737 41.1406C275.971 41.416 276.147 41.7705 276.264 42.2041C276.381 42.6377 276.44 43.1533 276.44 43.751V50H274.884V43.7334C274.884 43.2002 274.817 42.7871 274.682 42.4941C274.553 42.1953 274.369 41.9873 274.129 41.8701C273.888 41.7471 273.601 41.6855 273.267 41.6855C272.998 41.6855 272.757 41.7471 272.547 41.8701C272.341 41.9932 272.169 42.1631 272.028 42.3799C271.887 42.5908 271.779 42.834 271.703 43.1094C271.632 43.3848 271.597 43.6777 271.597 43.9883Z" fill="#FF7A00"/>
</svg>
